<?xml version="1.0" standalone="no"?>
<!DOCTYPE svg PUBLIC "-//W3C//DTD SVG 20010904//EN"
 "http://www.w3.org/TR/2001/REC-SVG-20010904/DTD/svg10.dtd">
<svg version="1.0" xmlns="http://www.w3.org/2000/svg"
 width="700.000000pt" height="700.000000pt" viewBox="0 0 700.000000 700.000000"
 preserveAspectRatio="xMidYMid meet">
<metadata>
Created by potrace 1.11, written by Peter Selinger 2001-2013
</metadata>
<g transform="translate(0.000000,700.000000) scale(0.100000,-0.100000)"
fill="#000000" stroke="none">
<path d="M0 3500 l0 -3500 3500 0 3500 0 0 3500 0 3500 -3500 0 -3500 0 0
-3500z m3099 2143 c-26 -27 -425 -446 -889 -933 -463 -487 -856 -898 -871
-915 l-29 -30 0 963 0 962 917 0 917 0 -45 -47z m2580 42 c-4 -4 -3602 -3603
-4089 -4090 l-280 -280 0 1032 0 1031 1096 1156 1095 1156 1091 0 c600 0 1089
-2 1087 -5z m-1014 -3441 l1020 -929 -1999 -3 c-1100 -1 -2002 0 -2005 3 -3 3
424 435 949 960 l955 955 30 -29 c16 -15 489 -446 1050 -957z"/>
</g>
</svg>
